STARTFONT 2.1
FONT -sun-helmetcondensed-medium-i-semicondensed--14-140-75-75-p-64-adobe-fontspecific
SIZE 14 75 75
FONTBOUNDINGBOX 15 17 -2 -3

STARTPROPERTIES 28
FOUNDRY "sun"
FAMILY_NAME "helmetcondensed"
WEIGHT_NAME "medium"
SLANT "i"
SETWIDTH_NAME "semicondensed"
ADD_STYLE_NAME ""
PIXEL_SIZE 15
POINT_SIZE 140
RESOLUTION_X 75
RESOLUTION_Y 75
SPACING "p"
AVERAGE_WIDTH 64
CHARSET_REGISTRY "adobe"
CHARSET_ENCODING "fontspecific"
COPYRIGHT "© 1999 Sun Microsystems, Inc."
RAW_PIXELSIZE 1000
RAW_POINTSIZE 964
RAW_ASCENT 911
RAW_DESCENT 217
RAW_AVERAGE_WIDTH 4390
FACE_NAME "HelmetCondensedItalicedB5"
_XMBDFED_INFO "Edited with xmbdfed 2.4."
WEIGHT 10
X_HEIGHT -1
QUAD_WIDTH 8
DEFAULT_CHAR 4
FONT_DESCENT 3
FONT_ASCENT 14
ENDPROPERTIES

CHARS 210

STARTCHAR char32
ENCODING 32
SWIDTH 30 0
DWIDTH 5 0
BBX 0 0 0 0
BITMAP
ENDCHAR

STARTCHAR char33
ENCODING 33
SWIDTH 18 0
DWIDTH 3 0
BBX 3 10 0 0
BITMAP
20
20
20
20
40
40
40
40
00
80
ENDCHAR

STARTCHAR char34
ENCODING 34
SWIDTH 24 0
DWIDTH 4 0
BBX 4 3 1 7
BITMAP
60
60
A0
ENDCHAR

STARTCHAR char35
ENCODING 35
SWIDTH 49 0
DWIDTH 8 0
BBX 7 11 0 0
BITMAP
12
14
24
7E
24
24
24
FE
28
48
48
ENDCHAR

STARTCHAR char36
ENCODING 36
SWIDTH 43 0
DWIDTH 7 0
BBX 6 12 0 -1
BITMAP
08
38
54
50
70
30
28
24
A4
A8
70
40
ENDCHAR

STARTCHAR char37
ENCODING 37
SWIDTH 5 0
DWIDTH 11 0
BBX 9 10 0 0
BITMAP
7200
5200
9200
9400
9780
FC80
0C80
1480
2480
2700
ENDCHAR

STARTCHAR char38
ENCODING 38
SWIDTH 43 0
DWIDTH 7 0
BBX 7 10 0 0
BITMAP
30
48
48
30
60
D0
92
94
8C
74
ENDCHAR

STARTCHAR char39
ENCODING 39
SWIDTH 12 0
DWIDTH 2 0
BBX 2 4 1 7
BITMAP
40
40
80
80
ENDCHAR

STARTCHAR char40
ENCODING 40
SWIDTH 24 0
DWIDTH 4 0
BBX 5 13 1 -2
BITMAP
10
10
20
40
40
80
80
80
80
80
40
40
40
ENDCHAR

STARTCHAR char41
ENCODING 41
SWIDTH 24 0
DWIDTH 4 0
BBX 5 13 -2 -2
BITMAP
10
08
08
08
08
08
08
08
08
10
10
20
40
ENDCHAR

STARTCHAR char42
ENCODING 42
SWIDTH 30 0
DWIDTH 5 0
BBX 4 4 1 6
BITMAP
20
70
50
10
ENDCHAR

STARTCHAR char43
ENCODING 43
SWIDTH 43 0
DWIDTH 7 0
BBX 7 6 0 1
BITMAP
10
10
FE
10
10
10
ENDCHAR

STARTCHAR char44
ENCODING 44
SWIDTH 12 0
DWIDTH 2 0
BBX 2 3 -1 -2
BITMAP
40
40
80
ENDCHAR

STARTCHAR char45
ENCODING 45
SWIDTH 30 0
DWIDTH 5 0
BBX 5 1 0 4
BITMAP
F0
ENDCHAR

STARTCHAR char46
ENCODING 46
SWIDTH 12 0
DWIDTH 2 0
BBX 1 1 0 0
BITMAP
80
ENDCHAR

STARTCHAR char47
ENCODING 47
SWIDTH 24 0
DWIDTH 4 0
BBX 5 10 -1 0
BITMAP
08
08
10
10
10
20
20
40
40
40
ENDCHAR

STARTCHAR char48
ENCODING 48
SWIDTH 43 0
DWIDTH 7 0
BBX 6 10 0 0
BITMAP
3C
24
44
44
C4
84
84
88
88
70
ENDCHAR

STARTCHAR char49
ENCODING 49
SWIDTH 43 0
DWIDTH 7 0
BBX 4 10 1 0
BITMAP
10
F0
20
20
20
20
20
40
40
40
ENDCHAR

STARTCHAR char50
ENCODING 50
SWIDTH 43 0
DWIDTH 7 0
BBX 6 10 0 0
BITMAP
38
24
44
04
08
10
20
40
80
F8
ENDCHAR

STARTCHAR char51
ENCODING 51
SWIDTH 43 0
DWIDTH 7 0
BBX 6 10 0 0
BITMAP
3C
24
04
04
38
08
08
88
88
70
ENDCHAR

STARTCHAR char52
ENCODING 52
SWIDTH 43 0
DWIDTH 7 0
BBX 6 10 0 0
BITMAP
04
0C
14
28
48
48
FC
10
10
10
ENDCHAR

STARTCHAR char53
ENCODING 53
SWIDTH 43 0
DWIDTH 7 0
BBX 6 10 0 0
BITMAP
3C
20
20
78
4C
04
04
84
88
78
ENDCHAR

STARTCHAR char54
ENCODING 54
SWIDTH 43 0
DWIDTH 7 0
BBX 7 10 0 0
BITMAP
38
46
40
F8
AC
C4
84
84
88
70
ENDCHAR

STARTCHAR char55
ENCODING 55
SWIDTH 43 0
DWIDTH 7 0
BBX 6 10 1 0
BITMAP
FC
08
10
30
20
40
40
40
80
80
ENDCHAR

STARTCHAR char56
ENCODING 56
SWIDTH 43 0
DWIDTH 7 0
BBX 6 10 0 0
BITMAP
38
44
44
4C
30
C8
88
88
88
70
ENDCHAR

STARTCHAR char57
ENCODING 57
SWIDTH 43 0
DWIDTH 7 0
BBX 6 10 0 0
BITMAP
38
44
44
44
4C
74
04
08
88
70
ENDCHAR

STARTCHAR char58
ENCODING 58
SWIDTH 18 0
DWIDTH 3 0
BBX 3 7 0 0
BITMAP
20
00
00
00
00
00
80
ENDCHAR

STARTCHAR char59
ENCODING 59
SWIDTH 18 0
DWIDTH 3 0
BBX 3 9 0 -2
BITMAP
20
00
00
00
00
00
80
80
80
ENDCHAR

STARTCHAR char60
ENCODING 60
SWIDTH 55 0
DWIDTH 9 0
BBX 8 7 0 0
BITMAP
03
1C
60
C0
30
0C
03
ENDCHAR

STARTCHAR char61
ENCODING 61
SWIDTH 43 0
DWIDTH 7 0
BBX 7 3 0 3
BITMAP
FE
00
FE
ENDCHAR

STARTCHAR char62
ENCODING 62
SWIDTH 55 0
DWIDTH 9 0
BBX 7 7 1 0
BITMAP
C0
30
0C
06
18
60
80
ENDCHAR

STARTCHAR char63
ENCODING 63
SWIDTH 36 0
DWIDTH 6 0
BBX 5 10 1 0
BITMAP
F0
88
08
18
30
40
40
40
00
80
ENDCHAR

STARTCHAR char64
ENCODING 64
SWIDTH 36 0
DWIDTH 16 0
BBX 11 11 2 0
BITMAP
0F00
3180
4040
4FA0
9120
A120
A340
B240
5F80
20C0
1F00
ENDCHAR

STARTCHAR char65
ENCODING 65
SWIDTH 36 0
DWIDTH 6 0
BBX 6 10 -1 0
BITMAP
08
0C
14
14
24
24
7C
44
84
84
ENDCHAR

STARTCHAR char66
ENCODING 66
SWIDTH 43 0
DWIDTH 7 0
BBX 7 10 0 0
BITMAP
3C
22
42
44
78
4C
44
84
8C
F0
ENDCHAR

STARTCHAR char67
ENCODING 67
SWIDTH 43 0
DWIDTH 7 0
BBX 7 10 0 0
BITMAP
1C
22
42
40
C0
80
80
84
88
78
ENDCHAR

STARTCHAR char68
ENCODING 68
SWIDTH 49 0
DWIDTH 8 0
BBX 7 10 0 0
BITMAP
3C
22
42
42
42
42
42
84
8C
F0
ENDCHAR

STARTCHAR char69
ENCODING 69
SWIDTH 36 0
DWIDTH 6 0
BBX 7 10 0 0
BITMAP
3C
20
40
40
78
40
40
80
80
F8
ENDCHAR

STARTCHAR char70
ENCODING 70
SWIDTH 36 0
DWIDTH 6 0
BBX 7 10 0 0
BITMAP
3C
20
40
40
78
40
C0
80
80
80
ENDCHAR

STARTCHAR char71
ENCODING 71
SWIDTH 49 0
DWIDTH 8 0
BBX 7 10 0 0
BITMAP
3C
22
42
40
C0
9E
84
84
8C
74
ENDCHAR

STARTCHAR char72
ENCODING 72
SWIDTH 49 0
DWIDTH 8 0
BBX 8 10 0 0
BITMAP
21
21
42
42
7E
42
84
84
84
84
ENDCHAR

STARTCHAR char73
ENCODING 73
SWIDTH 18 0
DWIDTH 3 0
BBX 3 10 0 0
BITMAP
20
20
20
40
40
40
40
80
80
80
ENDCHAR

STARTCHAR char74
ENCODING 74
SWIDTH 36 0
DWIDTH 6 0
BBX 6 10 0 0
BITMAP
04
04
08
08
08
08
10
90
90
E0
ENDCHAR

STARTCHAR char75
ENCODING 75
SWIDTH 43 0
DWIDTH 7 0
BBX 7 10 0 0
BITMAP
22
24
48
50
70
50
90
88
88
88
ENDCHAR

STARTCHAR char76
ENCODING 76
SWIDTH 36 0
DWIDTH 6 0
BBX 5 10 0 0
BITMAP
20
20
40
40
40
40
40
80
80
F8
ENDCHAR

STARTCHAR char77
ENCODING 77
SWIDTH 61 0
DWIDTH 10 0
BBX 10 10 0 0
BITMAP
20C0
5140
5180
5180
5280
5480
9480
9900
9900
9100
ENDCHAR

STARTCHAR char78
ENCODING 78
SWIDTH 49 0
DWIDTH 8 0
BBX 8 10 0 0
BITMAP
21
51
52
52
52
4A
8A
8C
8C
8C
ENDCHAR

STARTCHAR char79
ENCODING 79
SWIDTH 49 0
DWIDTH 8 0
BBX 7 10 0 0
BITMAP
1C
22
42
42
42
82
84
84
88
70
ENDCHAR

STARTCHAR char80
ENCODING 80
SWIDTH 43 0
DWIDTH 7 0
BBX 7 10 0 0
BITMAP
3C
22
42
46
7C
40
80
80
80
80
ENDCHAR

STARTCHAR char81
ENCODING 81
SWIDTH 49 0
DWIDTH 8 0
BBX 7 11 0 -1
BITMAP
3E
22
42
42
C2
82
84
84
88
74
04
ENDCHAR

STARTCHAR char82
ENCODING 82
SWIDTH 43 0
DWIDTH 7 0
BBX 7 10 0 0
BITMAP
3C
22
42
46
78
4C
84
84
84
84
ENDCHAR

STARTCHAR char83
ENCODING 83
SWIDTH 43 0
DWIDTH 7 0
BBX 7 10 0 0
BITMAP
3C
42
40
40
30
08
04
84
8C
78
ENDCHAR

STARTCHAR char84
ENCODING 84
SWIDTH 30 0
DWIDTH 5 0
BBX 6 10 1 0
BITMAP
F8
20
20
20
40
40
40
40
80
80
ENDCHAR

STARTCHAR char85
ENCODING 85
SWIDTH 49 0
DWIDTH 8 0
BBX 8 10 0 0
BITMAP
21
41
42
42
42
82
84
84
84
78
ENDCHAR

STARTCHAR char86
ENCODING 86
SWIDTH 36 0
DWIDTH 6 0
BBX 6 10 1 0
BITMAP
84
84
88
88
90
B0
A0
E0
C0
C0
ENDCHAR

STARTCHAR char87
ENCODING 87
SWIDTH 61 0
DWIDTH 10 0
BBX 9 10 1 0
BITMAP
8880
9880
9900
9900
A900
AA00
AA00
CC00
CC00
8C00
ENDCHAR

STARTCHAR char88
ENCODING 88
SWIDTH 36 0
DWIDTH 6 0
BBX 8 10 -1 0
BITMAP
21
22
16
14
18
18
28
64
44
84
ENDCHAR

STARTCHAR char89
ENCODING 89
SWIDTH 36 0
DWIDTH 6 0
BBX 6 10 1 0
BITMAP
84
8C
58
50
60
40
40
40
40
40
ENDCHAR

STARTCHAR char90
ENCODING 90
SWIDTH 36 0
DWIDTH 6 0
BBX 7 10 -1 0
BITMAP
3E
02
04
08
08
10
20
40
40
FC
ENDCHAR

STARTCHAR char91
ENCODING 91
SWIDTH 18 0
DWIDTH 3 0
BBX 5 13 -1 -2
BITMAP
18
10
10
20
20
20
20
20
40
40
40
40
E0
ENDCHAR

STARTCHAR char92
ENCODING 92
SWIDTH 24 0
DWIDTH 4 0
BBX 4 11 0 0
BITMAP
80
80
80
40
40
40
20
20
20
10
10
ENDCHAR

STARTCHAR char93
ENCODING 93
SWIDTH 18 0
DWIDTH 3 0
BBX 4 13 -1 -2
BITMAP
30
10
10
10
10
20
20
20
20
20
40
40
C0
ENDCHAR

STARTCHAR char94
ENCODING 94
SWIDTH 0 0
DWIDTH 0 0
BBX 3 2 0 11
BITMAP
40
A0
ENDCHAR

STARTCHAR char95
ENCODING 95
SWIDTH 55 0
DWIDTH 9 0
BBX 8 1 0 -2
BITMAP
FF
ENDCHAR

STARTCHAR char96
ENCODING 96
SWIDTH 0 0
DWIDTH 0 0
BBX 2 2 -1 8
BITMAP
80
40
ENDCHAR

STARTCHAR char97
ENCODING 97
SWIDTH 36 0
DWIDTH 6 0
BBX 5 8 0 0
BITMAP
38
48
08
18
70
90
90
F8
ENDCHAR

STARTCHAR char98
ENCODING 98
SWIDTH 36 0
DWIDTH 6 0
BBX 6 10 -1 0
BITMAP
20
20
38
24
24
44
44
44
48
70
ENDCHAR

STARTCHAR char99
ENCODING 99
SWIDTH 30 0
DWIDTH 5 0
BBX 5 8 0 0
BITMAP
38
48
48
80
80
80
90
F0
ENDCHAR

STARTCHAR char100
ENCODING 100
SWIDTH 36 0
DWIDTH 6 0
BBX 6 10 0 0
BITMAP
04
04
34
4C
48
88
88
88
90
E8
ENDCHAR

STARTCHAR char101
ENCODING 101
SWIDTH 36 0
DWIDTH 6 0
BBX 5 8 0 0
BITMAP
30
48
48
F8
80
80
90
70
ENDCHAR

STARTCHAR char102
ENCODING 102
SWIDTH 18 0
DWIDTH 3 0
BBX 5 10 0 0
BITMAP
38
20
60
40
40
40
40
80
80
80
ENDCHAR

STARTCHAR char103
ENCODING 103
SWIDTH 36 0
DWIDTH 6 0
BBX 6 11 0 -3
BITMAP
34
4C
48
88
88
88
90
F0
10
90
E0
ENDCHAR

STARTCHAR char104
ENCODING 104
SWIDTH 36 0
DWIDTH 6 0
BBX 6 10 0 0
BITMAP
20
20
58
64
44
4C
88
88
88
88
ENDCHAR

STARTCHAR char105
ENCODING 105
SWIDTH 18 0
DWIDTH 3 0
BBX 3 10 0 0
BITMAP
20
00
40
40
40
40
40
80
80
80
ENDCHAR

STARTCHAR char106
ENCODING 106
SWIDTH 18 0
DWIDTH 3 0
BBX 5 13 -2 -3
BITMAP
08
00
10
10
10
10
10
20
20
20
20
40
C0
ENDCHAR

STARTCHAR char107
ENCODING 107
SWIDTH 30 0
DWIDTH 5 0
BBX 6 10 0 0
BITMAP
20
20
40
48
50
60
E0
90
90
90
ENDCHAR

STARTCHAR char108
ENCODING 108
SWIDTH 18 0
DWIDTH 3 0
BBX 3 10 0 0
BITMAP
20
20
40
40
40
40
40
80
80
80
ENDCHAR

STARTCHAR char109
ENCODING 109
SWIDTH 61 0
DWIDTH 10 0
BBX 9 8 0 0
BITMAP
7B80
4C80
4880
4880
8900
8900
9100
9100
ENDCHAR

STARTCHAR char110
ENCODING 110
SWIDTH 36 0
DWIDTH 6 0
BBX 6 8 0 0
BITMAP
78
44
44
4C
88
88
88
88
ENDCHAR

STARTCHAR char111
ENCODING 111
SWIDTH 36 0
DWIDTH 6 0
BBX 5 8 0 0
BITMAP
30
48
48
88
88
88
90
60
ENDCHAR

STARTCHAR char112
ENCODING 112
SWIDTH 36 0
DWIDTH 6 0
BBX 7 11 -1 -3
BITMAP
3C
22
22
22
42
46
44
78
40
80
80
ENDCHAR

STARTCHAR char113
ENCODING 113
SWIDTH 36 0
DWIDTH 6 0
BBX 6 11 0 -3
BITMAP
34
4C
48
88
88
88
98
F0
10
10
10
ENDCHAR

STARTCHAR char114
ENCODING 114
SWIDTH 24 0
DWIDTH 4 0
BBX 4 8 0 0
BITMAP
50
60
40
40
80
80
80
80
ENDCHAR

STARTCHAR char115
ENCODING 115
SWIDTH 30 0
DWIDTH 5 0
BBX 5 8 0 0
BITMAP
70
D8
80
C0
20
10
90
E0
ENDCHAR

STARTCHAR char116
ENCODING 116
SWIDTH 18 0
DWIDTH 3 0
BBX 3 10 0 0
BITMAP
20
20
60
40
40
40
C0
80
80
C0
ENDCHAR

STARTCHAR char117
ENCODING 117
SWIDTH 36 0
DWIDTH 6 0
BBX 6 8 0 0
BITMAP
44
44
48
48
88
88
90
F0
ENDCHAR

STARTCHAR char118
ENCODING 118
SWIDTH 30 0
DWIDTH 5 0
BBX 4 8 1 0
BITMAP
90
90
90
A0
A0
C0
C0
80
ENDCHAR

STARTCHAR char119
ENCODING 119
SWIDTH 49 0
DWIDTH 8 0
BBX 8 8 0 0
BITMAP
9A
9A
9A
AA
AC
CC
CC
C8
ENDCHAR

STARTCHAR char120
ENCODING 120
SWIDTH 30 0
DWIDTH 5 0
BBX 6 8 -1 0
BITMAP
24
2C
28
30
30
70
48
88
ENDCHAR

STARTCHAR char121
ENCODING 121
SWIDTH 30 0
DWIDTH 5 0
BBX 7 11 -2 -3
BITMAP
12
12
16
14
14
18
18
10
10
20
40
ENDCHAR

STARTCHAR char122
ENCODING 122
SWIDTH 30 0
DWIDTH 5 0
BBX 6 8 -1 0
BITMAP
3C
08
08
10
20
20
40
F8
ENDCHAR

STARTCHAR char123
ENCODING 123
SWIDTH 30 0
DWIDTH 5 0
BBX 3 13 1 -3
BITMAP
60
40
40
40
40
80
80
40
40
40
40
40
20
ENDCHAR

STARTCHAR char124
ENCODING 124
SWIDTH 24 0
DWIDTH 4 0
BBX 1 11 1 0
BITMAP
80
80
80
80
80
80
80
80
80
80
80
ENDCHAR

STARTCHAR char125
ENCODING 125
SWIDTH 30 0
DWIDTH 5 0
BBX 3 13 1 -3
BITMAP
C0
40
40
40
40
20
20
40
40
40
40
40
80
ENDCHAR

STARTCHAR char126
ENCODING 126
SWIDTH 0 0
DWIDTH 0 0
BBX 3 2 0 11
BITMAP
E0
A0
ENDCHAR

STARTCHAR char128
ENCODING 128
SWIDTH 43 0
DWIDTH 7 0
BBX 8 10 -1 0
BITMAP
0E
11
21
7C
60
7C
40
42
44
3C
ENDCHAR

STARTCHAR char130
ENCODING 130
SWIDTH 12 0
DWIDTH 2 0
BBX 2 3 -1 -2
BITMAP
40
40
80
ENDCHAR

STARTCHAR char131
ENCODING 131
SWIDTH 0 0
DWIDTH 0 0
BBX 3 2 0 11
BITMAP
40
A0
ENDCHAR

STARTCHAR char132
ENCODING 132
SWIDTH 24 0
DWIDTH 4 0
BBX 4 3 -1 -2
BITMAP
50
50
A0
ENDCHAR

STARTCHAR char133
ENCODING 133
SWIDTH 36 0
DWIDTH 16 0
BBX 10 1 2 0
BITMAP
8840
ENDCHAR

STARTCHAR char134
ENCODING 134
SWIDTH 36 0
DWIDTH 6 0
BBX 5 12 1 -2
BITMAP
20
20
20
F8
20
40
40
40
40
40
80
80
ENDCHAR

STARTCHAR char135
ENCODING 135
SWIDTH 29 0
DWIDTH 15 0
BBX 0 0 0 0
BITMAP
ENDCHAR

STARTCHAR char136
ENCODING 136
SWIDTH 0 0
DWIDTH 0 0
BBX 4 2 -1 8
BITMAP
60
90
ENDCHAR

STARTCHAR char137
ENCODING 137
SWIDTH 29 0
DWIDTH 15 0
BBX 0 0 0 0
BITMAP
ENDCHAR

STARTCHAR char139
ENCODING 139
SWIDTH 30 0
DWIDTH 5 0
BBX 3 4 1 2
BITMAP
60
C0
C0
60
ENDCHAR

STARTCHAR char140
ENCODING 140
SWIDTH 5 0
DWIDTH 11 0
BBX 10 10 0 0
BITMAP
3E00
2200
4200
4200
83C0
8400
8400
8400
8800
7F80
ENDCHAR

STARTCHAR char142
ENCODING 142
SWIDTH 29 0
DWIDTH 15 0
BBX 0 0 0 0
BITMAP
ENDCHAR

STARTCHAR char144
ENCODING 144
SWIDTH 29 0
DWIDTH 15 0
BBX 0 0 0 0
BITMAP
ENDCHAR

STARTCHAR char145
ENCODING 145
SWIDTH 12 0
DWIDTH 2 0
BBX 2 3 1 7
BITMAP
C0
80
80
ENDCHAR

STARTCHAR char146
ENCODING 146
SWIDTH 12 0
DWIDTH 2 0
BBX 2 3 1 7
BITMAP
40
40
80
ENDCHAR

STARTCHAR char147
ENCODING 147
SWIDTH 24 0
DWIDTH 4 0
BBX 4 3 1 7
BITMAP
F0
A0
A0
ENDCHAR

STARTCHAR char148
ENCODING 148
SWIDTH 24 0
DWIDTH 4 0
BBX 4 3 1 7
BITMAP
60
60
A0
ENDCHAR

STARTCHAR char149
ENCODING 149
SWIDTH 30 0
DWIDTH 5 0
BBX 4 4 0 3
BITMAP
60
F0
F0
60
ENDCHAR

STARTCHAR char150
ENCODING 150
SWIDTH 43 0
DWIDTH 7 0
BBX 6 1 0 4
BITMAP
FC
ENDCHAR

STARTCHAR char151
ENCODING 151
SWIDTH 43 0
DWIDTH 7 0
BBX 7 1 0 4
BITMAP
FE
ENDCHAR

STARTCHAR char152
ENCODING 152
SWIDTH 0 0
DWIDTH 0 0
BBX 4 1 -1 9
BITMAP
F0
ENDCHAR

STARTCHAR char153
ENCODING 153
SWIDTH 17 0
DWIDTH 13 0
BBX 12 5 0 4
BITMAP
FA60
2360
2360
23A0
66F0
ENDCHAR

STARTCHAR char154
ENCODING 154
SWIDTH 29 0
DWIDTH 15 0
BBX 0 0 0 0
BITMAP
ENDCHAR

STARTCHAR char155
ENCODING 155
SWIDTH 30 0
DWIDTH 5 0
BBX 3 4 1 2
BITMAP
C0
60
60
80
ENDCHAR

STARTCHAR char156
ENCODING 156
SWIDTH 61 0
DWIDTH 10 0
BBX 9 8 0 0
BITMAP
3300
4C80
4880
8F80
8800
8800
9900
E600
ENDCHAR

STARTCHAR char159
ENCODING 159
SWIDTH 36 0
DWIDTH 6 0
BBX 6 13 1 0
BITMAP
28
20
00
84
88
50
50
60
40
40
40
40
40
ENDCHAR

STARTCHAR char160
ENCODING 160
SWIDTH 36 0
DWIDTH 6 0
BBX 0 0 0 0
BITMAP
ENDCHAR

STARTCHAR char161
ENCODING 161
SWIDTH 18 0
DWIDTH 3 0
BBX 3 10 0 0
BITMAP
20
00
20
20
40
40
40
40
80
80
ENDCHAR

STARTCHAR char162
ENCODING 162
SWIDTH 30 0
DWIDTH 5 0
BBX 5 10 0 -1
BITMAP
10
30
58
58
A0
A0
A0
B0
70
40
ENDCHAR

STARTCHAR char163
ENCODING 163
SWIDTH 43 0
DWIDTH 7 0
BBX 6 10 0 0
BITMAP
18
24
24
20
20
F8
20
20
40
F8
ENDCHAR

STARTCHAR char164
ENCODING 164
SWIDTH 0 0
DWIDTH 0 0
BBX 3 2 1 11
BITMAP
40
80
ENDCHAR

STARTCHAR char165
ENCODING 165
SWIDTH 0 0
DWIDTH 0 0
BBX 3 2 0 11
BITMAP
A0
C0
ENDCHAR

STARTCHAR char166
ENCODING 166
SWIDTH 29 0
DWIDTH 15 0
BBX 0 0 0 0
BITMAP
ENDCHAR

STARTCHAR char167
ENCODING 167
SWIDTH 43 0
DWIDTH 7 0
BBX 6 12 0 -2
BITMAP
18
24
20
50
88
88
44
2C
10
10
90
60
ENDCHAR

STARTCHAR char168
ENCODING 168
SWIDTH 0 0
DWIDTH 0 0
BBX 4 1 -1 9
BITMAP
90
ENDCHAR

STARTCHAR char169
ENCODING 169
SWIDTH 11 0
DWIDTH 12 0
BBX 10 10 0 0
BITMAP
0E00
3100
4E80
5140
9140
9040
9040
4E40
6080
1F00
ENDCHAR

STARTCHAR char170
ENCODING 170
SWIDTH 0 0
DWIDTH 0 0
BBX 3 2 0 11
BITMAP
A0
80
ENDCHAR

STARTCHAR char171
ENCODING 171
SWIDTH 36 0
DWIDTH 6 0
BBX 5 4 0 3
BITMAP
20
68
90
48
ENDCHAR

STARTCHAR char172
ENCODING 172
SWIDTH 5 0
DWIDTH 11 0
BBX 9 4 0 0
BITMAP
FF80
0080
0080
0080
ENDCHAR

STARTCHAR char173
ENCODING 173
SWIDTH 29 0
DWIDTH 15 0
BBX 0 0 0 0
BITMAP
ENDCHAR

STARTCHAR char174
ENCODING 174
SWIDTH 11 0
DWIDTH 12 0
BBX 10 10 0 0
BITMAP
0E00
3100
5E80
4A40
8A40
8C40
8E40
5B40
6080
1F00
ENDCHAR

STARTCHAR char175
ENCODING 175
SWIDTH 29 0
DWIDTH 15 0
BBX 0 0 0 0
BITMAP
ENDCHAR

STARTCHAR char176
ENCODING 176
SWIDTH 36 0
DWIDTH 6 0
BBX 5 5 0 5
BITMAP
30
C8
88
48
30
ENDCHAR

STARTCHAR char177
ENCODING 177
SWIDTH 49 0
DWIDTH 8 0
BBX 7 9 0 0
BITMAP
10
10
10
FE
10
10
10
00
FE
ENDCHAR

STARTCHAR char178
ENCODING 178
SWIDTH 29 0
DWIDTH 15 0
BBX 0 0 0 0
BITMAP
ENDCHAR

STARTCHAR char179
ENCODING 179
SWIDTH 29 0
DWIDTH 15 0
BBX 0 0 0 0
BITMAP
ENDCHAR

STARTCHAR char180
ENCODING 180
SWIDTH 0 0
DWIDTH 0 0
BBX 3 2 0 8
BITMAP
40
80
ENDCHAR

STARTCHAR char181
ENCODING 181
SWIDTH 29 0
DWIDTH 15 0
BBX 0 0 0 0
BITMAP
ENDCHAR

STARTCHAR char182
ENCODING 182
SWIDTH 61 0
DWIDTH 10 0
BBX 7 12 1 -2
BITMAP
3E
64
E4
E4
64
24
24
24
24
24
24
24
ENDCHAR

STARTCHAR char183
ENCODING 183
SWIDTH 18 0
DWIDTH 3 0
BBX 1 1 1 4
BITMAP
80
ENDCHAR

STARTCHAR char184
ENCODING 184
SWIDTH 0 0
DWIDTH 0 0
BBX 2 2 -2 -3
BITMAP
80
80
ENDCHAR

STARTCHAR char186
ENCODING 186
SWIDTH 0 0
DWIDTH 0 0
BBX 3 2 0 11
BITMAP
E0
A0
ENDCHAR

STARTCHAR char187
ENCODING 187
SWIDTH 36 0
DWIDTH 6 0
BBX 5 4 0 2
BITMAP
58
28
D0
90
ENDCHAR

STARTCHAR char188
ENCODING 188
SWIDTH 29 0
DWIDTH 15 0
BBX 0 0 0 0
BITMAP
ENDCHAR

STARTCHAR char191
ENCODING 191
SWIDTH 36 0
DWIDTH 6 0
BBX 4 10 0 0
BITMAP
10
00
10
10
20
40
80
90
90
70
ENDCHAR

STARTCHAR char192
ENCODING 192
SWIDTH 36 0
DWIDTH 6 0
BBX 6 13 -1 0
BITMAP
08
08
00
08
0C
14
14
24
24
7C
44
84
84
ENDCHAR

STARTCHAR char193
ENCODING 193
SWIDTH 36 0
DWIDTH 6 0
BBX 7 13 -1 0
BITMAP
02
04
00
08
0C
14
14
24
24
7C
44
84
84
ENDCHAR

STARTCHAR char194
ENCODING 194
SWIDTH 36 0
DWIDTH 6 0
BBX 7 13 -1 0
BITMAP
04
0A
00
08
0C
14
14
24
24
7C
44
84
84
ENDCHAR

STARTCHAR char195
ENCODING 195
SWIDTH 36 0
DWIDTH 6 0
BBX 7 13 -1 0
BITMAP
0E
12
00
08
0C
14
14
24
24
7C
44
84
84
ENDCHAR

STARTCHAR char196
ENCODING 196
SWIDTH 36 0
DWIDTH 6 0
BBX 7 13 -1 0
BITMAP
0A
00
00
08
0C
14
14
24
24
7C
44
84
84
ENDCHAR

STARTCHAR char197
ENCODING 197
SWIDTH 36 0
DWIDTH 6 0
BBX 7 14 -1 0
BITMAP
0C
0A
0A
0C
08
0C
14
14
24
24
7C
44
84
84
ENDCHAR

STARTCHAR char198
ENCODING 198
SWIDTH 5 0
DWIDTH 11 0
BBX 11 10 0 0
BITMAP
07E0
0600
0A00
1200
13C0
2400
3C00
4400
8400
8F80
ENDCHAR

STARTCHAR char199
ENCODING 199
SWIDTH 43 0
DWIDTH 7 0
BBX 7 13 0 -3
BITMAP
1C
22
42
40
C0
80
80
84
88
78
00
20
20
ENDCHAR

STARTCHAR char200
ENCODING 200
SWIDTH 36 0
DWIDTH 6 0
BBX 7 13 0 0
BITMAP
10
10
00
3C
20
40
40
78
40
40
80
80
F8
ENDCHAR

STARTCHAR char201
ENCODING 201
SWIDTH 36 0
DWIDTH 6 0
BBX 7 13 0 0
BITMAP
04
08
00
3C
20
40
40
78
40
40
80
80
F8
ENDCHAR

STARTCHAR char202
ENCODING 202
SWIDTH 36 0
DWIDTH 6 0
BBX 7 13 0 0
BITMAP
08
14
00
3C
20
40
40
78
40
40
80
80
F8
ENDCHAR

STARTCHAR char203
ENCODING 203
SWIDTH 36 0
DWIDTH 6 0
BBX 7 13 0 0
BITMAP
14
10
00
3C
20
40
40
78
40
40
80
80
F8
ENDCHAR

STARTCHAR char204
ENCODING 204
SWIDTH 18 0
DWIDTH 3 0
BBX 3 13 0 0
BITMAP
40
20
00
20
20
20
40
40
40
40
80
80
80
ENDCHAR

STARTCHAR char205
ENCODING 205
SWIDTH 18 0
DWIDTH 3 0
BBX 5 13 0 0
BITMAP
18
10
00
20
20
20
40
40
40
40
80
80
80
ENDCHAR

STARTCHAR char206
ENCODING 206
SWIDTH 18 0
DWIDTH 3 0
BBX 4 13 0 0
BITMAP
30
50
00
20
20
20
40
40
40
40
80
80
80
ENDCHAR

STARTCHAR char207
ENCODING 207
SWIDTH 18 0
DWIDTH 3 0
BBX 4 13 0 0
BITMAP
50
40
00
20
20
20
40
40
40
40
80
80
80
ENDCHAR

STARTCHAR char208
ENCODING 208
SWIDTH 29 0
DWIDTH 15 0
BBX 0 0 0 0
BITMAP
ENDCHAR

STARTCHAR char209
ENCODING 209
SWIDTH 49 0
DWIDTH 8 0
BBX 8 13 0 0
BITMAP
0E
12
00
21
51
52
52
52
4A
8A
8C
8C
8C
ENDCHAR

STARTCHAR char210
ENCODING 210
SWIDTH 49 0
DWIDTH 8 0
BBX 7 13 0 0
BITMAP
10
08
00
1C
22
42
42
42
82
84
84
88
70
ENDCHAR

STARTCHAR char211
ENCODING 211
SWIDTH 49 0
DWIDTH 8 0
BBX 7 13 0 0
BITMAP
02
04
00
1C
22
42
42
42
82
84
84
88
70
ENDCHAR

STARTCHAR char212
ENCODING 212
SWIDTH 49 0
DWIDTH 8 0
BBX 7 13 0 0
BITMAP
0C
14
00
1C
22
42
42
42
82
84
84
88
70
ENDCHAR

STARTCHAR char213
ENCODING 213
SWIDTH 49 0
DWIDTH 8 0
BBX 7 13 0 0
BITMAP
0E
14
00
1C
22
42
42
42
82
84
84
88
70
ENDCHAR

STARTCHAR char214
ENCODING 214
SWIDTH 49 0
DWIDTH 8 0
BBX 7 13 0 0
BITMAP
0A
00
00
1C
22
42
42
42
82
84
84
88
70
ENDCHAR

STARTCHAR char215
ENCODING 215
SWIDTH 29 0
DWIDTH 15 0
BBX 0 0 0 0
BITMAP
ENDCHAR

STARTCHAR char216
ENCODING 216
SWIDTH 49 0
DWIDTH 8 0
BBX 7 12 0 -1
BITMAP
02
1E
22
4E
4A
4A
92
A4
A4
C8
F8
80
ENDCHAR

STARTCHAR char217
ENCODING 217
SWIDTH 49 0
DWIDTH 8 0
BBX 8 13 0 0
BITMAP
10
08
00
21
42
42
42
42
82
84
84
84
78
ENDCHAR

STARTCHAR char218
ENCODING 218
SWIDTH 49 0
DWIDTH 8 0
BBX 8 13 0 0
BITMAP
02
04
00
21
42
42
42
42
82
84
84
84
78
ENDCHAR

STARTCHAR char219
ENCODING 219
SWIDTH 49 0
DWIDTH 8 0
BBX 8 13 0 0
BITMAP
0C
14
00
21
42
42
42
42
82
84
84
84
78
ENDCHAR

STARTCHAR char220
ENCODING 220
SWIDTH 49 0
DWIDTH 8 0
BBX 8 13 0 0
BITMAP
0A
00
00
21
42
42
42
42
82
84
84
84
78
ENDCHAR

STARTCHAR char221
ENCODING 221
SWIDTH 29 0
DWIDTH 15 0
BBX 0 0 0 0
BITMAP
ENDCHAR

STARTCHAR char223
ENCODING 223
SWIDTH 36 0
DWIDTH 6 0
BBX 6 10 0 0
BITMAP
38
44
44
4C
50
48
88
88
88
B0
ENDCHAR

STARTCHAR char224
ENCODING 224
SWIDTH 36 0
DWIDTH 6 0
BBX 5 10 0 0
BITMAP
20
10
38
48
08
18
70
90
90
F8
ENDCHAR

STARTCHAR char225
ENCODING 225
SWIDTH 36 0
DWIDTH 6 0
BBX 6 10 0 0
BITMAP
08
10
38
48
08
18
70
90
90
F8
ENDCHAR

STARTCHAR char226
ENCODING 226
SWIDTH 36 0
DWIDTH 6 0
BBX 5 10 0 0
BITMAP
38
28
38
48
08
18
70
90
90
F8
ENDCHAR

STARTCHAR char227
ENCODING 227
SWIDTH 36 0
DWIDTH 6 0
BBX 6 10 0 0
BITMAP
38
00
38
48
08
18
70
90
90
F8
ENDCHAR

STARTCHAR char228
ENCODING 228
SWIDTH 36 0
DWIDTH 6 0
BBX 5 10 0 0
BITMAP
28
00
38
48
08
18
70
90
90
F8
ENDCHAR

STARTCHAR char229
ENCODING 229
SWIDTH 36 0
DWIDTH 6 0
BBX 5 11 0 0
BITMAP
38
28
38
38
48
08
18
70
90
90
F8
ENDCHAR

STARTCHAR char230
ENCODING 230
SWIDTH 55 0
DWIDTH 9 0
BBX 8 8 0 0
BITMAP
36
49
09
3F
50
90
92
EE
ENDCHAR

STARTCHAR char231
ENCODING 231
SWIDTH 30 0
DWIDTH 5 0
BBX 5 11 0 -3
BITMAP
38
48
48
80
80
80
90
F0
00
40
40
ENDCHAR

STARTCHAR char232
ENCODING 232
SWIDTH 36 0
DWIDTH 6 0
BBX 5 10 0 0
BITMAP
20
10
30
48
48
F8
80
80
90
70
ENDCHAR

STARTCHAR char233
ENCODING 233
SWIDTH 36 0
DWIDTH 6 0
BBX 6 10 0 0
BITMAP
08
10
30
48
48
F8
80
80
90
70
ENDCHAR

STARTCHAR char234
ENCODING 234
SWIDTH 36 0
DWIDTH 6 0
BBX 5 10 0 0
BITMAP
38
28
30
48
48
F8
80
80
90
70
ENDCHAR

STARTCHAR char235
ENCODING 235
SWIDTH 36 0
DWIDTH 6 0
BBX 5 10 0 0
BITMAP
28
00
30
48
48
F8
80
80
90
70
ENDCHAR

STARTCHAR char236
ENCODING 236
SWIDTH 18 0
DWIDTH 3 0
BBX 2 10 0 0
BITMAP
40
40
40
40
40
40
40
80
80
80
ENDCHAR

STARTCHAR char237
ENCODING 237
SWIDTH 18 0
DWIDTH 3 0
BBX 4 10 0 0
BITMAP
30
20
40
40
40
40
40
80
80
80
ENDCHAR

STARTCHAR char238
ENCODING 238
SWIDTH 18 0
DWIDTH 3 0
BBX 4 10 0 0
BITMAP
60
90
40
40
40
40
40
80
80
80
ENDCHAR

STARTCHAR char239
ENCODING 239
SWIDTH 18 0
DWIDTH 3 0
BBX 4 10 0 0
BITMAP
50
00
40
40
40
40
40
80
80
80
ENDCHAR

STARTCHAR char241
ENCODING 241
SWIDTH 36 0
DWIDTH 6 0
BBX 6 10 0 0
BITMAP
3C
00
78
44
44
4C
88
88
88
88
ENDCHAR

STARTCHAR char242
ENCODING 242
SWIDTH 36 0
DWIDTH 6 0
BBX 5 10 0 0
BITMAP
20
10
30
48
48
88
88
88
90
60
ENDCHAR

STARTCHAR char243
ENCODING 243
SWIDTH 36 0
DWIDTH 6 0
BBX 6 10 0 0
BITMAP
08
10
30
48
48
88
88
88
90
60
ENDCHAR

STARTCHAR char244
ENCODING 244
SWIDTH 36 0
DWIDTH 6 0
BBX 5 10 0 0
BITMAP
38
28
30
48
48
88
88
88
90
60
ENDCHAR

STARTCHAR char245
ENCODING 245
SWIDTH 36 0
DWIDTH 6 0
BBX 6 10 0 0
BITMAP
3C
00
30
48
48
88
88
88
90
60
ENDCHAR

STARTCHAR char246
ENCODING 246
SWIDTH 36 0
DWIDTH 6 0
BBX 6 10 0 0
BITMAP
28
00
30
48
48
88
88
88
90
70
ENDCHAR

STARTCHAR char247
ENCODING 247
SWIDTH 49 0
DWIDTH 8 0
BBX 7 5 0 1
BITMAP
10
00
FE
00
10
ENDCHAR

STARTCHAR char248
ENCODING 248
SWIDTH 36 0
DWIDTH 6 0
BBX 7 9 -1 -1
BITMAP
1C
24
2C
4C
54
64
68
78
40
ENDCHAR

STARTCHAR char249
ENCODING 249
SWIDTH 36 0
DWIDTH 6 0
BBX 6 10 0 0
BITMAP
20
10
44
44
44
48
88
88
90
F0
ENDCHAR

STARTCHAR char250
ENCODING 250
SWIDTH 36 0
DWIDTH 6 0
BBX 6 10 0 0
BITMAP
08
10
44
44
44
48
88
88
90
F0
ENDCHAR

STARTCHAR char251
ENCODING 251
SWIDTH 36 0
DWIDTH 6 0
BBX 6 10 0 0
BITMAP
18
28
44
44
44
48
88
88
90
F0
ENDCHAR

STARTCHAR char252
ENCODING 252
SWIDTH 36 0
DWIDTH 6 0
BBX 6 10 0 0
BITMAP
24
00
44
44
48
48
88
88
90
F0
ENDCHAR

STARTCHAR char255
ENCODING 255
SWIDTH 30 0
DWIDTH 5 0
BBX 7 13 -2 -3
BITMAP
0A
00
32
12
12
14
14
18
18
10
10
20
40
ENDCHAR
ENDFONT
